<svg width="48" height="48" viewBox="0 0 48 48" fill="none" xmlns="http://www.w3.org/2000/svg">
<path d="M48 0H0V48H48V0Z" fill="#69AB3C"/>
<path fill-rule="evenodd" clip-rule="evenodd" d="M35.5866 32.1H37.3999V38.4H31.0533V36.6H34.3046L31.318 33.6372L32.6019 32.3628L35.5866 35.3274V32.1ZM13.2953 36.6H16.5466V38.4H10.2V32.1H12.0133V35.3274L14.998 32.3628L16.2819 33.6372L13.2953 36.6ZM37.3999 9.6V15.9H35.5866V12.6726L32.6019 15.6372L31.318 14.3628L34.3046 11.4H31.0533V9.6H37.3999ZM10.2 9.6H16.5466V11.4H13.2953L16.2819 14.3628L14.998 15.6372L12.0133 12.6726V15.9H10.2V9.6ZM23.9106 30.3C21.0872 30.3 19.5749 29.6808 19.4334 29.3928L19.4153 20.4954C20.8533 21.0156 22.8062 21.1038 23.9106 21.1038C24.9986 21.1038 26.9116 21.0066 28.3369 20.4918L28.3532 29.3028C28.1447 29.652 26.4383 30.3 23.9106 30.3ZM28.2299 18.5892C27.8038 18.8718 26.4402 19.3038 23.9106 19.3038C21.1362 19.3038 19.758 18.7944 19.4824 18.6162C19.8505 18.2562 21.4716 17.7 23.9106 17.7C26.121 17.7 27.7603 18.2328 28.2299 18.5892ZM23.9106 15.9C21.5732 15.9 17.6201 16.4652 17.6201 18.5856V29.3928C17.6201 31.9056 22.4345 32.1 23.9106 32.1C26.2262 32.1 30.1466 31.5294 30.1466 29.3928V18.5856C30.1466 16.4616 26.0666 15.9 23.9106 15.9Z" fill="white"/>
</svg>
